<svg width="512" height="512" viewBox="0 0 512 512" fill="none" xmlns="http://www.w3.org/2000/svg">
  <rect width="512" height="512" rx="100" fill="url(#gradient)"/>
  <path d="M256 128C185 128 128 185 128 256C128 327 185 384 256 384C327 384 384 327 384 256C384 185 327 128 256 128Z" fill="white" fill-opacity="0.2"/>
  <path d="M256 160C203 160 160 203 160 256C160 309 203 352 256 352C309 352 352 309 352 256C352 203 309 160 256 160Z" fill="white"/>
  <path d="M256 200C225 200 200 225 200 256C200 287 225 312 256 312C287 312 312 287 312 256C312 225 287 200 256 200Z" fill="url(#gradient)"/>
  <defs>
    <linearGradient id="gradient" x1="0" y1="0" x2="512" y2="512" gradientUnits="userSpaceOnUse">
      <stop stop-color="#f43f5e"/>
      <stop offset="1" stop-color="#a855f7"/>
    </linearGradient>
  </defs>
</svg>
